<?xml version="1.0" encoding="UTF-8" standalone="no"?>
<!-- By Sam Herbert (@sherb), for everyone. More @ http://goo.gl/7AJzbL -->

<svg
   xmlns:dc="http://purl.org/dc/elements/1.1/"
   xmlns:cc="http://creativecommons.org/ns#"
   xmlns:rdf="http://www.w3.org/1999/02/22-rdf-syntax-ns#"
   xmlns:svg="http://www.w3.org/2000/svg"
   xmlns="http://www.w3.org/2000/svg"
   xmlns:sodipodi="http://sodipodi.sourceforge.net/DTD/sodipodi-0.dtd"
   xmlns:inkscape="http://www.inkscape.org/namespaces/inkscape"
   width="32"
   height="32"
   viewBox="0 0 32 32"
   id="svg2"
   version="1.1"
   inkscape:version="0.92.1 r15371"
   sodipodi:docname="show-apps-hover-shadow.svg"
   style="stroke:#ffffff">
  <metadata
     id="metadata16">
    <rdf:RDF>
      <cc:Work
         rdf:about="">
        <dc:format>image/svg+xml</dc:format>
        <dc:type
           rdf:resource="http://purl.org/dc/dcmitype/StillImage" />
        <dc:title></dc:title>
        <cc:license
           rdf:resource="http://creativecommons.org/licenses/by-sa/4.0/" />
      </cc:Work>
      <cc:License
         rdf:about="http://creativecommons.org/licenses/by-sa/4.0/">
        <cc:permits
           rdf:resource="http://creativecommons.org/ns#Reproduction" />
        <cc:permits
           rdf:resource="http://creativecommons.org/ns#Distribution" />
        <cc:requires
           rdf:resource="http://creativecommons.org/ns#Notice" />
        <cc:requires
           rdf:resource="http://creativecommons.org/ns#Attribution" />
        <cc:permits
           rdf:resource="http://creativecommons.org/ns#DerivativeWorks" />
        <cc:requires
           rdf:resource="http://creativecommons.org/ns#ShareAlike" />
      </cc:License>
    </rdf:RDF>
  </metadata>
  <defs
     id="defs14">
    <filter
       inkscape:collect="always"
       style="color-interpolation-filters:sRGB"
       id="filter4499"
       x="-0.072"
       width="1.144"
       y="-0.072"
       height="1.144">
      <feGaussianBlur
         inkscape:collect="always"
         stdDeviation="0.48"
         id="feGaussianBlur4501" />
    </filter>
  </defs>
  <sodipodi:namedview
     pagecolor="#808080"
     bordercolor="#666666"
     borderopacity="1"
     objecttolerance="10"
     gridtolerance="10"
     guidetolerance="10"
     inkscape:pageopacity="0"
     inkscape:pageshadow="2"
     inkscape:window-width="1920"
     inkscape:window-height="1022"
     id="namedview12"
     showgrid="true"
     inkscape:zoom="12.421053"
     inkscape:cx="-2.5831171"
     inkscape:cy="12.951962"
     inkscape:window-x="0"
     inkscape:window-y="32"
     inkscape:window-maximized="1"
     inkscape:current-layer="svg2"
     showguides="false"
     inkscape:document-rotation="0">
    <sodipodi:guide
       position="590.23042,546.50965"
       orientation="0,1"
       id="guide4136"
       inkscape:locked="false" />
    <inkscape:grid
       type="xygrid"
       id="grid4162" />
  </sodipodi:namedview>
  <g
     id="g4505">
    <path
       id="path814-3"
       d="m 10,8.9999991 a 2,2 0 0 0 -2,1.9999999 2,2 0 0 0 2,2 2,2 0 0 0 2,-2 2,2 0 0 0 -2,-1.9999999 z m 6,0 a 2,2 0 0 0 -2,1.9999999 2,2 0 0 0 2,2 2,2 0 0 0 2,-2 2,2 0 0 0 -2,-1.9999999 z m 6,0 a 2,2 0 0 0 -2,1.9999999 2,2 0 0 0 2,2 2,2 0 0 0 2,-2 2,2 0 0 0 -2,-1.9999999 z M 10,14.999999 a 2,2 0 0 0 -2,2 2,2 0 0 0 2,2 2,2 0 0 0 2,-2 2,2 0 0 0 -2,-2 z m 6,0 a 2,2 0 0 0 -2,2 2,2 0 0 0 2,2 2,2 0 0 0 2,-2 2,2 0 0 0 -2,-2 z m 6,0 a 2,2 0 0 0 -2,2 2,2 0 0 0 2,2 2,2 0 0 0 2,-2 2,2 0 0 0 -2,-2 z m -12,6 a 2,2 0 0 0 -2,2 2,2 0 0 0 2,2 2,2 0 0 0 2,-2 2,2 0 0 0 -2,-2 z m 6,0 a 2,2 0 0 0 -2,2 2,2 0 0 0 2,2 2,2 0 0 0 2,-2 2,2 0 0 0 -2,-2 z m 6,0 a 2,2 0 0 0 -2,2 2,2 0 0 0 2,2 2,2 0 0 0 2,-2 2,2 0 0 0 -2,-2 z"
       style="opacity:0.23999999;fill:#000000;fill-opacity:1;stroke:none;stroke-width:2;filter:url(#filter4499)"
       inkscape:connector-curvature="0" />
    <path
       id="path814"
       d="M 10 8 A 2 2 0 0 0 8 10 A 2 2 0 0 0 10 12 A 2 2 0 0 0 12 10 A 2 2 0 0 0 10 8 z M 16 8 A 2 2 0 0 0 14 10 A 2 2 0 0 0 16 12 A 2 2 0 0 0 18 10 A 2 2 0 0 0 16 8 z M 22 8 A 2 2 0 0 0 20 10 A 2 2 0 0 0 22 12 A 2 2 0 0 0 24 10 A 2 2 0 0 0 22 8 z M 10 14 A 2 2 0 0 0 8 16 A 2 2 0 0 0 10 18 A 2 2 0 0 0 12 16 A 2 2 0 0 0 10 14 z M 16 14 A 2 2 0 0 0 14 16 A 2 2 0 0 0 16 18 A 2 2 0 0 0 18 16 A 2 2 0 0 0 16 14 z M 22 14 A 2 2 0 0 0 20 16 A 2 2 0 0 0 22 18 A 2 2 0 0 0 24 16 A 2 2 0 0 0 22 14 z M 10 20 A 2 2 0 0 0 8 22 A 2 2 0 0 0 10 24 A 2 2 0 0 0 12 22 A 2 2 0 0 0 10 20 z M 16 20 A 2 2 0 0 0 14 22 A 2 2 0 0 0 16 24 A 2 2 0 0 0 18 22 A 2 2 0 0 0 16 20 z M 22 20 A 2 2 0 0 0 20 22 A 2 2 0 0 0 22 24 A 2 2 0 0 0 24 22 A 2 2 0 0 0 22 20 z "
       style="fill:#ffffff;fill-opacity:1;stroke:none;stroke-width:2" />
  </g>
</svg>
