#define desk_toggled_width 10
#define desk_toggled_height 10
static unsigned char desk_toggled_bits[] = {
   0xcf, 0x03, 0x49, 0x02, 0x49, 0x02, 0xcf, 0x03, 0x00, 0x00, 0x00, 0x00,
   0xcf, 0x03, 0x49, 0x02, 0x49, 0x02, 0xcf, 0x03 };
