#define max_toggled_width 10
#define max_toggled_height 10
static unsigned char max_toggled_bits[] = {
   0xf8, 0x03, 0xf8, 0x03, 0x18, 0x03, 0x1b, 0x03, 0x1b, 0x03, 0xfb, 0x03,
   0xfb, 0x03, 0x03, 0x00, 0x7f, 0x00, 0x7f, 0x00 };
