#define max_toggled_width 8
#define max_toggled_height 8
static unsigned char max_toggled_bits[] = {
   0xf8, 0xf8, 0xdb, 0xfb, 0xfb, 0x03, 0x3f, 0x3f };
