/* XPM */
static char * close_active_xpm[] = {
"28 32 36 1",
" 	c None",
".	c #39454C",
"+	c #2A373E",
"@	c #4C575D",
"#	c #6E777D",
"$	c #3F4A51",
"%	c #3C484F",
"&	c #4D575E",
"*	c #717A7F",
"=	c #BCC1C5",
"-	c #AFB5B8",
";	c #444F55",
">	c #414D53",
",	c #ADB3B7",
"'	c #727B80",
")	c #B3B8BC",
"!	c #434E55",
"~	c #424D54",
"{	c #AEB4B8",
"]	c #B5BBBE",
"^	c #455157",
"/	c #48535A",
"(	c #AEB4B9",
"_	c #475258",
":	c #B2B7BB",
"<	c #B5BBBF",
"[	c #4E5A5F",
"}	c #B1B7BB",
"|	c #445057",
"1	c #AFB5B9",
"2	c #404C53",
"3	c #B0B6BA",
"4	c #465158",
"5	c #515B62",
"6	c #747D82",
"7	c #515C62",
"............................",
"++++++++++++++++++++++++++++",
"++++++++++++++++++++++++++++",
"++++++++++++++++++++++++++++",
"++++++++++++++++++++++++++++",
"++++++++++++++++++++++++++++",
"++++++++++++++++++++++++++++",
"++++++++++++++++++++++++++++",
"++++++++++++++++++++++++++++",
"++++++++++++++++++++++++++++",
"++++++++++++++++++++++++++++",
"+++++++++@#$++++%#&+++++++++",
"+++++++++*=-;++>,='+++++++++",
"+++++++++;)=-!~{=]^+++++++++",
"++++++++++/)=-(=]&++++++++++",
"+++++++++++_:==<[+++++++++++",
"+++++++++++;-==}^+++++++++++",
"++++++++++|1=}}=}^++++++++++",
"+++++++++23=}4^}=}>+++++++++",
"+++++++++*=:4++^}=*+++++++++",
"+++++++++562++++267+++++++++",
"++++++++++++++++++++++++++++",
"++++++++++++++++++++++++++++",
"++++++++++++++++++++++++++++",
"++++++++++++++++++++++++++++",
"++++++++++++++++++++++++++++",
"++++++++++++++++++++++++++++",
"++++++++++++++++++++++++++++",
"++++++++++++++++++++++++++++",
"++++++++++++++++++++++++++++",
"++++++++++++++++++++++++++++",
"++++++++++++++++++++++++++++"};
