/* XPM */
static char * close_active_xpm[] = {
"28 32 29 1",
" 	c None",
".	c #39454C",
"+	c #2A373E",
"@	c #BBC0C4",
"#	c #9AA1A5",
"$	c #364349",
"%	c #354148",
"&	c #979EA3",
"*	c #BCC1C5",
"=	c #A2A9AE",
"-	c #A2A8AD",
";	c #364248",
">	c #A0A7AB",
",	c #A4ABB0",
"'	c #3A464C",
")	c #A7AEB1",
"!	c #A1A8AC",
"~	c #A9B0B3",
"{	c #3C484F",
"]	c #38444B",
"^	c #A5AAAF",
"/	c #AAB1B5",
"(	c #3E4A50",
"_	c #A6ACB0",
":	c #39454B",
"<	c #37434A",
"[	c #A3AAAD",
"}	c #9FA6AB",
"|	c #38454B",
"............................",
"++++++++++++++++++++++++++++",
"++++++++++++++++++++++++++++",
"++++++++++++++++++++++++++++",
"++++++++++++++++++++++++++++",
"++++++++++++++++++++++++++++",
"++++++++++++++++++++++++++++",
"++++++++++++++++++++++++++++",
"++++++++++++++++++++++++++++",
"++++++++++++++++++++++++++++",
"++++++++++++++++++++++++++++",
"++++++++++++++++++++++++++++",
"++++++++++@#$++%&*++++++++++",
"++++++++++=*-$;>*,++++++++++",
"++++++++++')*-!*~{++++++++++",
"+++++++++++]^**/(+++++++++++",
"+++++++++++$-**_:+++++++++++",
"++++++++++<[*,,*,]++++++++++",
"++++++++++}*,|],*>++++++++++",
"++++++++++@>|++]>*++++++++++",
"++++++++++++++++++++++++++++",
"++++++++++++++++++++++++++++",
"++++++++++++++++++++++++++++",
"++++++++++++++++++++++++++++",
"++++++++++++++++++++++++++++",
"++++++++++++++++++++++++++++",
"++++++++++++++++++++++++++++",
"++++++++++++++++++++++++++++",
"++++++++++++++++++++++++++++",
"++++++++++++++++++++++++++++",
"++++++++++++++++++++++++++++",
"++++++++++++++++++++++++++++"};
