/* XPM */
static char * close_inactive_xpm[] = {
"28 32 34 1",
" 	c None",
".	c #39454C",
"+	c #2A373E",
"@	c #3C484E",
"#	c #4D595F",
"$	c #354149",
"%	c #344047",
"&	c #3C484F",
"*	c #505A61",
"=	c #778085",
"-	c #717A7F",
";	c #37434B",
">	c #364349",
",	c #6F787E",
"'	c #505B61",
")	c #727B81",
"!	c #37434A",
"~	c #36434A",
"{	c #70797F",
"]	c #747D81",
"^	c #39454B",
"/	c #3B464D",
"(	c #71797E",
"_	c #39464C",
":	c #717B80",
"<	c #747D82",
"[	c #3E4950",
"}	c #727B80",
"|	c #38444B",
"1	c #354349",
"2	c #727B7F",
"3	c #3F4A50",
"4	c #515C62",
"5	c #3F4A51",
"............................",
"++++++++++++++++++++++++++++",
"++++++++++++++++++++++++++++",
"++++++++++++++++++++++++++++",
"++++++++++++++++++++++++++++",
"++++++++++++++++++++++++++++",
"++++++++++++++++++++++++++++",
"++++++++++++++++++++++++++++",
"++++++++++++++++++++++++++++",
"++++++++++++++++++++++++++++",
"++++++++++++++++++++++++++++",
"+++++++++@#$++++%#&+++++++++",
"+++++++++*=-;++>,='+++++++++",
"+++++++++;)=-!~{=]^+++++++++",
"++++++++++/)=-(=]&++++++++++",
"+++++++++++_:==<[+++++++++++",
"+++++++++++;-==}^+++++++++++",
"++++++++++|-=}}=}^++++++++++",
"+++++++++12=}^^}=}>+++++++++",
"+++++++++*=:^++^}=*+++++++++",
"+++++++++341++++145+++++++++",
"++++++++++++++++++++++++++++",
"++++++++++++++++++++++++++++",
"++++++++++++++++++++++++++++",
"++++++++++++++++++++++++++++",
"++++++++++++++++++++++++++++",
"++++++++++++++++++++++++++++",
"++++++++++++++++++++++++++++",
"++++++++++++++++++++++++++++",
"++++++++++++++++++++++++++++",
"++++++++++++++++++++++++++++",
"++++++++++++++++++++++++++++"};
