/* XPM */
static char * close_pressed_xpm[] = {
"28 32 96 2",
"  	c None",
". 	c #39454C",
"+ 	c #2A373E",
"@ 	c #2A363D",
"# 	c #29363D",
"$ 	c #29353C",
"% 	c #24454E",
"& 	c #176E7D",
"* 	c #0B96A9",
"= 	c #06A7BD",
"- 	c #02B6CE",
"; 	c #176F7C",
"> 	c #24444D",
", 	c #25434C",
"' 	c #108697",
") 	c #00BBD3",
"! 	c #00BCD4",
"~ 	c #00BBD2",
"{ 	c #0D8EA1",
"] 	c #24464F",
"^ 	c #1B5F6B",
"/ 	c #02B5CD",
"( 	c #02B5CC",
"_ 	c #1C5F6A",
": 	c #176F7D",
"< 	c #1C5E6A",
"[ 	c #24444C",
"} 	c #24434B",
"| 	c #0F8899",
"1 	c #0F8698",
"2 	c #23444D",
"3 	c #24434C",
"4 	c #28353C",
"5 	c #166E7C",
"6 	c #FEFFFF",
"7 	c #C4EFF5",
"8 	c #15C2D8",
"9 	c #13C1D7",
"0 	c #BFEEF4",
"a 	c #FFFFFF",
"b 	c #176D7B",
"c 	c #28343B",
"d 	c #0B95A8",
"e 	c #D3F3F8",
"f 	c #D2F3F7",
"g 	c #14C1D7",
"h 	c #CFF2F7",
"i 	c #D7F4F8",
"j 	c #0B94A7",
"k 	c #28343A",
"l 	c #05A8BE",
"m 	c #1BC3D9",
"n 	c #DBF6F9",
"o 	c #D1F3F7",
"p 	c #DFF7FA",
"q 	c #20C4D9",
"r 	c #28353B",
"s 	c #27333A",
"t 	c #18C2D8",
"u 	c #D6F4F8",
"v 	c #E1F7FA",
"w 	c #22C5DA",
"x 	c #D9F5F9",
"y 	c #1AC3D8",
"z 	c #02B5CB",
"A 	c #06A7BC",
"B 	c #17C2D8",
"C 	c #D4F4F8",
"D 	c #CDF2F7",
"E 	c #19C3D8",
"F 	c #0B94A6",
"G 	c #166D7B",
"H 	c #166A79",
"I 	c #23424B",
"J 	c #01BAD2",
"K 	c #23424A",
"L 	c #0F8495",
"M 	c #234249",
"N 	c #02B4CC",
"O 	c #234048",
"P 	c #1B5A65",
"Q 	c #1B5C67",
"R 	c #27343A",
"S 	c #1A5D68",
"T 	c #1B5B66",
"U 	c #233D44",
"V 	c #108091",
"W 	c #0D899B",
"X 	c #223F48",
"Y 	c #273339",
"Z 	c #224249",
"` 	c #166B79",
" .	c #0B93A6",
"..	c #166B78",
"+.	c #273239",
"@.	c #263238",
". . . . . . . . . . . . . . . . . . . . . . . . . . . . ",
"+ + + + + + + + + + + + + + + + + + + + + + + + + + + + ",
"+ + + + + + + + + + + + + + + + + + + + + + + + + + + + ",
"+ + + + + + + + + @ # # # $ $ # # # @ + + + + + + + + + ",
"+ + + + + + + # # % & * = - - = * ; > # # + + + + + + + ",
"+ + + + + @ # , ' ) ! ! ! ! ! ! ! ! ~ { ] # @ + + + + + ",
"+ + + + @ $ ^ / ! ! ! ! ! ! ! ! ! ! ! ! ( _ $ @ + + + + ",
"+ + + @ $ : ~ ! ! ! ! ! ! ! ! ! ! ! ! ! ! ~ : $ @ + + + ",
"+ + @ $ ^ ~ ! ! ! ! ! ! ! ! ! ! ! ! ! ! ! ! ~ < $ @ + + ",
"+ @ # [ / ! ! ! ! ! ! ! ! ! ! ! ! ! ! ! ! ! ! ( } # + + ",
"+ # $ | ! ! ! ! ! ! ! ! ! ! ! ! ! ! ! ! ! ! ! ! 1 $ # + ",
"@ $ 2 ) ! ! ! ! ! ! ! ! ! ! ! ! ! ! ! ! ! ! ! ! ) 3 $ + ",
"# 4 5 ! ! ! ! ! ! ! 6 7 8 ! ! 9 0 a ! ! ! ! ! ! ! b 4 + ",
"$ c d ! ! ! ! ! ! ! e a f 8 g h a i ! ! ! ! ! ! ! j c + ",
"$ k l ! ! ! ! ! ! ! m n a f o a p q ! ! ! ! ! ! ! = k + ",
"r s / ! ! ! ! ! ! ! ! t u a a v w ! ! ! ! ! ! ! ! / s + ",
"r s / ! ! ! ! ! ! ! ! 8 f a a x y ! ! ! ! ! ! ! ! z s + ",
"r s A ! ! ! ! ! ! ! B C a i i a i t ! ! ! ! ! ! ! A s + ",
"r s d ! ! ! ! ! ! ! D a i E t i a h ! ! ! ! ! ! ! F s + ",
"$ k G ! ! ! ! ! ! ! 6 h E ! ! t h a ! ! ! ! ! ! ! H k + ",
"$ c I ) ! ! ! ! ! ! ! ! ! ! ! ! ! ! ! ! ! ! ! ! J K c + ",
"# 4 s 1 ! ! ! ! ! ! ! ! ! ! ! ! ! ! ! ! ! ! ! ! L s 4 + ",
"@ $ c M N ! ! ! ! ! ! ! ! ! ! ! ! ! ! ! ! ! ! z O c $ + ",
"+ # $ k P ) ! ! ! ! ! ! ! ! ! ! ! ! ! ! ! ! ~ Q R $ # + ",
"+ + # r s G ~ ! ! ! ! ! ! ! ! ! ! ! ! ! ! ~ G s r # + + ",
"+ + @ $ c s S N ! ! ! ! ! ! ! ! ! ! ! ! z T s c $ @ + + ",
"+ + + @ $ c s U V J ! ! ! ! ! ! ! ! ~ W X s c $ @ + + + ",
"+ + + + @ # r k Y Z ` j A / / A  ...Z Y R r $ @ + + + + ",
"+ + + + + @ # $ c R Y +.@.@.@.@.+.Y R c $ # @ + + + + + ",
"+ + + + + + + # # $ r c k k k k c r $ # # + + + + + + + ",
"+ + + + + + + + + + + + + + + + + + + + + + + + + + + + ",
"+ + + + + + + + + + + + + + + + + + + + + + + + + + + + "};
