/* XPM */
static char * close_inactive_xpm[] = {
"28 32 23 1",
" 	c None",
".	c #39454C",
"+	c #2A373E",
"@	c #778085",
"#	c #656F75",
"$	c #313D44",
"%	c #303C43",
"&	c #636E74",
"*	c #6A7479",
"=	c #697379",
"-	c #303C44",
";	c #687278",
">	c #6B747A",
",	c #323F45",
"'	c #6D767B",
")	c #6D777C",
"!	c #344047",
"~	c #313E45",
"{	c #6E787D",
"]	c #354148",
"^	c #6C757B",
"/	c #323F46",
"(	c #687177",
"............................",
"++++++++++++++++++++++++++++",
"++++++++++++++++++++++++++++",
"++++++++++++++++++++++++++++",
"++++++++++++++++++++++++++++",
"++++++++++++++++++++++++++++",
"++++++++++++++++++++++++++++",
"++++++++++++++++++++++++++++",
"++++++++++++++++++++++++++++",
"++++++++++++++++++++++++++++",
"++++++++++++++++++++++++++++",
"++++++++++++++++++++++++++++",
"++++++++++@#$++%&@++++++++++",
"++++++++++*@=$-;@>++++++++++",
"++++++++++,'@==@)!++++++++++",
"+++++++++++~>@@{]+++++++++++",
"+++++++++++$=@@^/+++++++++++",
"++++++++++~*@>>@>~++++++++++",
"++++++++++(@>~~>@;++++++++++",
"++++++++++@;~++~;@++++++++++",
"++++++++++++++++++++++++++++",
"++++++++++++++++++++++++++++",
"++++++++++++++++++++++++++++",
"++++++++++++++++++++++++++++",
"++++++++++++++++++++++++++++",
"++++++++++++++++++++++++++++",
"++++++++++++++++++++++++++++",
"++++++++++++++++++++++++++++",
"++++++++++++++++++++++++++++",
"++++++++++++++++++++++++++++",
"++++++++++++++++++++++++++++",
"++++++++++++++++++++++++++++"};
