/* XPM */
static char * close_prelight_xpm[] = {
"28 32 101 2",
"  	c None",
". 	c #39454C",
"+ 	c #2A373E",
"@ 	c #2A363D",
"# 	c #29363D",
"$ 	c #29353C",
"% 	c #42393F",
"& 	c #844145",
"* 	c #C3494B",
"= 	c #DE4D4E",
"- 	c #F65051",
"; 	c #834245",
"> 	c #41383E",
", 	c #40383F",
"' 	c #A94649",
") 	c #FC5252",
"! 	c #FF5252",
"~ 	c #FD5151",
"{ 	c #B7484B",
"] 	c #44383E",
"^ 	c #6B3E42",
"/ 	c #F55051",
"( 	c #F45151",
"_ 	c #6A3E42",
": 	c #864145",
"< 	c #854145",
"[ 	c #6A3D42",
"} 	c #40383E",
"| 	c #3E383D",
"1 	c #AD4749",
"2 	c #AA4649",
"3 	c #FF7A7A",
"4 	c #FFA2A2",
"5 	c #FF6A6A",
"6 	c #FF6868",
"7 	c #FF7B7B",
"8 	c #40373E",
"9 	c #28353C",
"0 	c #844044",
"a 	c #FFA6A6",
"b 	c #FFFFFF",
"c 	c #FFF0F0",
"d 	c #FF7070",
"e 	c #FF6D6D",
"f 	c #FFEDED",
"g 	c #FFA7A7",
"h 	c #824044",
"i 	c #28343B",
"j 	c #C2494B",
"k 	c #FFF4F4",
"l 	c #FF6E6E",
"m 	c #FFEFEF",
"n 	c #FFF7F7",
"o 	c #FF7373",
"p 	c #C0494B",
"q 	c #28343A",
"r 	c #E04D4E",
"s 	c #FF7676",
"t 	c #28353B",
"u 	c #27333A",
"v 	c #FF7474",
"w 	c #FFF3F3",
"x 	c #FFF8F8",
"y 	c #FF7D7D",
"z 	c #FFF2F2",
"A 	c #F35050",
"B 	c #DF4D4E",
"C 	c #FF7171",
"D 	c #FFF1F1",
"E 	c #DD4D4E",
"F 	c #FF6C6C",
"G 	c #C0494A",
"H 	c #7F3F44",
"I 	c #40363C",
"J 	c #FF7F7F",
"K 	c #FFAAAA",
"L 	c #FF8080",
"M 	c #3F363C",
"N 	c #AB4548",
"O 	c #A74548",
"P 	c #3E373C",
"Q 	c #F45051",
"R 	c #3C363B",
"S 	c #643B3F",
"T 	c #683C40",
"U 	c #27343A",
"V 	c #843F43",
"W 	c #834043",
"X 	c #673B3F",
"Y 	c #38353A",
"Z 	c #A14447",
"` 	c #AF4648",
" .	c #3B353B",
"..	c #273339",
"+.	c #3E363B",
"@.	c #813E42",
"#.	c #C1494B",
"$.	c #C0484A",
"%.	c #803F42",
"&.	c #273239",
"*.	c #263238",
". . . . . . . . . . . . . . . . . . . . . . . . . . . . ",
"+ + + + + + + + + + + + + + + + + + + + + + + + + + + + ",
"+ + + + + + + + + + + + + + + + + + + + + + + + + + + + ",
"+ + + + + + + + + @ # # # $ $ # # # @ + + + + + + + + + ",
"+ + + + + + + # # % & * = - - = * ; > # # + + + + + + + ",
"+ + + + + @ # , ' ) ! ! ! ! ! ! ! ! ~ { ] # @ + + + + + ",
"+ + + + @ $ ^ / ! ! ! ! ! ! ! ! ! ! ! ! ( _ $ @ + + + + ",
"+ + + @ $ : ~ ! ! ! ! ! ! ! ! ! ! ! ! ! ! ~ < $ @ + + + ",
"+ + @ $ ^ ~ ! ! ! ! ! ! ! ! ! ! ! ! ! ! ! ! ~ [ $ @ + + ",
"+ @ # } / ! ! ! ! ! ! ! ! ! ! ! ! ! ! ! ! ! ! ( | # + + ",
"+ # $ 1 ! ! ! ! ! ! ! ! ! ! ! ! ! ! ! ! ! ! ! ! 2 $ # + ",
"@ $ > ) ! ! ! ! ! 3 4 5 ! ! ! ! 6 4 7 ! ! ! ! ! ) 8 $ + ",
"# 9 0 ! ! ! ! ! ! a b c d ! ! e f b g ! ! ! ! ! ! h 9 + ",
"$ i j ! ! ! ! ! ! d k b c d l m b n o ! ! ! ! ! ! p i + ",
"$ q r ! ! ! ! ! ! ! s k b c m b n 7 ! ! ! ! ! ! ! = q + ",
"t u / ! ! ! ! ! ! ! ! v w b b x y ! ! ! ! ! ! ! ! / u + ",
"t u / ! ! ! ! ! ! ! ! d c b b z o ! ! ! ! ! ! ! ! A u + ",
"t u B ! ! ! ! ! ! ! C D b w z b z o ! ! ! ! ! ! ! E u + ",
"t u j ! ! ! ! ! ! F D b w o o z b z e ! ! ! ! ! ! G u + ",
"$ q h ! ! ! ! ! ! a b w o ! ! o z b a ! ! ! ! ! ! H q + ",
"$ i I ) ! ! ! ! ! J K F ! ! ! ! F K L ! ! ! ! ! ) M i + ",
"# 9 u N ! ! ! ! ! ! ! ! ! ! ! ! ! ! ! ! ! ! ! ! O u 9 + ",
"@ $ i P Q ! ! ! ! ! ! ! ! ! ! ! ! ! ! ! ! ! ! A R i $ + ",
"+ # $ q S ) ! ! ! ! ! ! ! ! ! ! ! ! ! ! ! ! ~ T U $ # + ",
"+ + # t u V ~ ! ! ! ! ! ! ! ! ! ! ! ! ! ! ~ W u t # + + ",
"+ + @ $ i u T Q ! ! ! ! ! ! ! ! ! ! ! ! A X u i $ @ + + ",
"+ + + @ $ i u Y Z ) ! ! ! ! ! ! ! ! ~ `  .u i $ @ + + + ",
"+ + + + @ # t q ..+.@.#.E / / E $.%.+...U t $ @ + + + + ",
"+ + + + + @ # $ i U ..&.*.*.*.*.&...U i $ # @ + + + + + ",
"+ + + + + + + # # $ t i q q q q i t $ # # + + + + + + + ",
"+ + + + + + + + + + + + + + + + + + + + + + + + + + + + ",
"+ + + + + + + + + + + + + + + + + + + + + + + + + + + + "};
