/* XPM */
static char * close_pressed_xpm[] = {
"28 32 102 2",
"  	c None",
". 	c #39454C",
"+ 	c #2A373E",
"@ 	c #2A363D",
"# 	c #29363D",
"$ 	c #29353C",
"% 	c #24454E",
"& 	c #176E7D",
"* 	c #0B96A9",
"= 	c #06A7BD",
"- 	c #02B6CE",
"; 	c #176F7C",
"> 	c #24444D",
", 	c #25434C",
"' 	c #108697",
") 	c #00BBD3",
"! 	c #00BCD4",
"~ 	c #00BBD2",
"{ 	c #0D8EA1",
"] 	c #24464F",
"^ 	c #1B5F6B",
"/ 	c #02B5CD",
"( 	c #02B5CC",
"_ 	c #1C5F6A",
": 	c #176F7D",
"< 	c #1C5E6A",
"[ 	c #24444C",
"} 	c #24434B",
"| 	c #0F8899",
"1 	c #0F8698",
"2 	c #23444D",
"3 	c #3BCCDE",
"4 	c #76DBE8",
"5 	c #24C5DA",
"6 	c #20C4D9",
"7 	c #3CCCDE",
"8 	c #24434C",
"9 	c #28353C",
"0 	c #166E7C",
"a 	c #7CDDE9",
"b 	c #FFFFFF",
"c 	c #E9F9FB",
"d 	c #2CC8DB",
"e 	c #28C7DB",
"f 	c #E5F8FB",
"g 	c #7EDDE9",
"h 	c #176D7B",
"i 	c #28343B",
"j 	c #0B95A8",
"k 	c #EFFBFC",
"l 	c #29C7DB",
"m 	c #E7F9FB",
"n 	c #F3FCFD",
"o 	c #30C9DC",
"p 	c #0B94A7",
"q 	c #28343A",
"r 	c #05A8BE",
"s 	c #35CADD",
"t 	c #E8F9FB",
"u 	c #28353B",
"v 	c #27333A",
"w 	c #32C9DC",
"x 	c #EDFAFC",
"y 	c #F4FCFD",
"z 	c #40CDDF",
"A 	c #ECFAFC",
"B 	c #02B5CB",
"C 	c #06A7BC",
"D 	c #2EC8DC",
"E 	c #EAF9FB",
"F 	c #27C6DB",
"G 	c #EBFAFC",
"H 	c #31C9DC",
"I 	c #0B94A6",
"J 	c #166D7B",
"K 	c #166A79",
"L 	c #23424B",
"M 	c #43CEDF",
"N 	c #81DEEA",
"O 	c #44CEDF",
"P 	c #01BAD2",
"Q 	c #23424A",
"R 	c #0F8495",
"S 	c #234249",
"T 	c #02B4CC",
"U 	c #234048",
"V 	c #1B5A65",
"W 	c #1B5C67",
"X 	c #27343A",
"Y 	c #1A5D68",
"Z 	c #1B5B66",
"` 	c #233D44",
" .	c #108091",
"..	c #0D899B",
"+.	c #223F48",
"@.	c #273339",
"#.	c #224249",
"$.	c #166B79",
"%.	c #0B93A6",
"&.	c #166B78",
"*.	c #273239",
"=.	c #263238",
". . . . . . . . . . . . . . . . . . . . . . . . . . . . ",
"+ + + + + + + + + + + + + + + + + + + + + + + + + + + + ",
"+ + + + + + + + + + + + + + + + + + + + + + + + + + + + ",
"+ + + + + + + + + @ # # # $ $ # # # @ + + + + + + + + + ",
"+ + + + + + + # # % & * = - - = * ; > # # + + + + + + + ",
"+ + + + + @ # , ' ) ! ! ! ! ! ! ! ! ~ { ] # @ + + + + + ",
"+ + + + @ $ ^ / ! ! ! ! ! ! ! ! ! ! ! ! ( _ $ @ + + + + ",
"+ + + @ $ : ~ ! ! ! ! ! ! ! ! ! ! ! ! ! ! ~ : $ @ + + + ",
"+ + @ $ ^ ~ ! ! ! ! ! ! ! ! ! ! ! ! ! ! ! ! ~ < $ @ + + ",
"+ @ # [ / ! ! ! ! ! ! ! ! ! ! ! ! ! ! ! ! ! ! ( } # + + ",
"+ # $ | ! ! ! ! ! ! ! ! ! ! ! ! ! ! ! ! ! ! ! ! 1 $ # + ",
"@ $ 2 ) ! ! ! ! ! 3 4 5 ! ! ! ! 6 4 7 ! ! ! ! ! ) 8 $ + ",
"# 9 0 ! ! ! ! ! ! a b c d ! ! e f b g ! ! ! ! ! ! h 9 + ",
"$ i j ! ! ! ! ! ! d k b c d l m b n o ! ! ! ! ! ! p i + ",
"$ q r ! ! ! ! ! ! ! s k b c t b n 7 ! ! ! ! ! ! ! = q + ",
"u v / ! ! ! ! ! ! ! ! w x b b y z ! ! ! ! ! ! ! ! / v + ",
"u v / ! ! ! ! ! ! ! ! d c b b A o ! ! ! ! ! ! ! ! B v + ",
"u v C ! ! ! ! ! ! ! D E b x A b A o ! ! ! ! ! ! ! C v + ",
"u v j ! ! ! ! ! ! F G b x H o A b A e ! ! ! ! ! ! I v + ",
"$ q J ! ! ! ! ! ! a b x H ! ! o A b a ! ! ! ! ! ! K q + ",
"$ i L ) ! ! ! ! ! M N F ! ! ! ! F N O ! ! ! ! ! P Q i + ",
"# 9 v 1 ! ! ! ! ! ! ! ! ! ! ! ! ! ! ! ! ! ! ! ! R v 9 + ",
"@ $ i S T ! ! ! ! ! ! ! ! ! ! ! ! ! ! ! ! ! ! B U i $ + ",
"+ # $ q V ) ! ! ! ! ! ! ! ! ! ! ! ! ! ! ! ! ~ W X $ # + ",
"+ + # u v J ~ ! ! ! ! ! ! ! ! ! ! ! ! ! ! ~ J v u # + + ",
"+ + @ $ i v Y T ! ! ! ! ! ! ! ! ! ! ! ! B Z v i $ @ + + ",
"+ + + @ $ i v `  .P ! ! ! ! ! ! ! ! ~ ..+.v i $ @ + + + ",
"+ + + + @ # u q @.#.$.p C / / C %.&.#.@.X u $ @ + + + + ",
"+ + + + + @ # $ i X @.*.=.=.=.=.*.@.X i $ # @ + + + + + ",
"+ + + + + + + # # $ u i q q q q i u $ # # + + + + + + + ",
"+ + + + + + + + + + + + + + + + + + + + + + + + + + + + ",
"+ + + + + + + + + + + + + + + + + + + + + + + + + + + + "};
