/* XPM */
static char * maximize_prelight_xpm[] = {
"28 32 21 1",
" 	c None",
".	c #39454C",
"+	c #2A373E",
"@	c #2D3940",
"#	c #323F45",
"$	c #38444A",
"%	c #3A464D",
"&	c #3D494F",
"*	c #354248",
"=	c #3E4950",
"-	c #37434A",
";	c #313D44",
">	c #303C43",
",	c #2C383F",
"'	c #364349",
")	c #ECEFF1",
"!	c #38444B",
"~	c #3B474E",
"{	c #364248",
"]	c #2C3940",
"^	c #364249",
"............................",
"++++++++++++++++++++++++++++",
"++++++++++++++++++++++++++++",
"++++++++++++++++++++++++++++",
"+++++++++@#$%&&%$#@+++++++++",
"+++++++@*==========-@+++++++",
"++++++;&============&>++++++",
"+++++#================#+++++",
"++++;==================>++++",
"+++@&==================&,+++",
"+++'===================='+++",
"++@======================@++",
"++#=======))))))))=======#++",
"++$=======))))))))=======!++",
"++~======================%++",
"++&=======))))))))=======&++",
"++&=======))))))))=======&++",
"++%=======))====))=======%++",
"++$=======))))))))=======!++",
"++#=======))))))))=======#++",
"++@======================@++",
"+++'===================={+++",
"+++@&==================&,+++",
"++++>==================>++++",
"+++++#================#+++++",
"++++++>&============&>++++++",
"+++++++]{==========^,+++++++",
"+++++++++@#$%&&%!#@+++++++++",
"++++++++++++++++++++++++++++",
"++++++++++++++++++++++++++++",
"++++++++++++++++++++++++++++",
"++++++++++++++++++++++++++++"};
