/* XPM */
static char * maximize_active_xpm[] = {
"28 32 5 1",
" 	c None",
".	c #39454C",
"+	c #2A373E",
"@	c #ACB2B6",
"#	c #BABFC3",
"............................",
"++++++++++++++++++++++++++++",
"++++++++++++++++++++++++++++",
"++++++++++++++++++++++++++++",
"++++++++++++++++++++++++++++",
"++++++++++++++++++++++++++++",
"++++++++++++++++++++++++++++",
"++++++++++++++++++++++++++++",
"++++++++++++++++++++++++++++",
"++++++++++++++++++++++++++++",
"++++++++++++++++++++++++++++",
"++++++++++++++++++++++++++++",
"+++++++++++++@@+++++++++++++",
"+++++++++++++@@+++++++++++++",
"+++++++++++++@@+++++++++++++",
"++++++++++@@@##@@@++++++++++",
"++++++++++@@@##@@@++++++++++",
"+++++++++++++@@+++++++++++++",
"+++++++++++++@@+++++++++++++",
"+++++++++++++@@+++++++++++++",
"++++++++++++++++++++++++++++",
"++++++++++++++++++++++++++++",
"++++++++++++++++++++++++++++",
"++++++++++++++++++++++++++++",
"++++++++++++++++++++++++++++",
"++++++++++++++++++++++++++++",
"++++++++++++++++++++++++++++",
"++++++++++++++++++++++++++++",
"++++++++++++++++++++++++++++",
"++++++++++++++++++++++++++++",
"++++++++++++++++++++++++++++",
"++++++++++++++++++++++++++++"};
