/* XPM */
static char * maximize_pressed_xpm[] = {
"28 32 32 1",
" 	c None",
".	c #39454C",
"+	c #2A373E",
"@	c #2F3C43",
"#	c #3A464E",
"$	c #465158",
"%	c #4B565D",
"&	c #4F5960",
"*	c #3A464D",
"=	c #2E3B42",
"-	c #414C53",
";	c #505A61",
">	c #515B62",
",	c #434F56",
"'	c #364349",
")	c #4F5A60",
"!	c #354249",
"~	c #424D54",
"{	c #424D53",
"]	c #ECEFF1",
"^	c #3B464D",
"/	c #465157",
"(	c #455057",
"_	c #4B565C",
":	c #4E595F",
"<	c #3A454D",
"[	c #414D54",
"}	c #354148",
"|	c #364248",
"1	c #2D3A41",
"2	c #404C52",
"3	c #434E54",
"............................",
"++++++++++++++++++++++++++++",
"++++++++++++++++++++++++++++",
"++++++++++++++++++++++++++++",
"+++++++++@#$%&&%$*=+++++++++",
"+++++++=-;>>>>>>>>>,@+++++++",
"++++++'&>>>>>>>>>>>>)!++++++",
"+++++#>>>>>>>>>>>>>>>>#+++++",
"++++'>>>>>>>>>>>>>>>>>>!++++",
"+++=&>>>>>>>>>>>>>>>>>>)=+++",
"+++~>>>>>>>>>>>>>>>>>>>>{+++",
"++@;>>>>>>>>>>>>>>>>>>>>;=++",
"++#>>>>>>>]]]]]]]]>>>>>>>^++",
"++/>>>>>>>]]]]]]]]>>>>>>>(++",
"++_>>>>>>>>>>>>>>>>>>>>>>%++",
"++&>>>>>>>]]]]]]]]>>>>>>>&++",
"++&>>>>>>>]]]]]]]]>>>>>>>:++",
"++%>>>>>>>]]>>>>]]>>>>>>>_++",
"++/>>>>>>>]]]]]]]]>>>>>>>(++",
"++*>>>>>>>]]]]]]]]>>>>>>><++",
"++=;>>>>>>>>>>>>>>>>>>>>;=++",
"+++{>>>>>>>>>>>>>>>>>>>>[+++",
"+++=)>>>>>>>>>>>>>>>>>>:=+++",
"++++};>>>>>>>>>>>>>>>>>|++++",
"+++++#>>>>>>>>>>>>>>>>#+++++",
"++++++!)>>>>>>>>>>>>:|++++++",
"+++++++12;>>>>>>>>>3=+++++++",
"+++++++++=^/_&&_(^=+++++++++",
"++++++++++++++++++++++++++++",
"++++++++++++++++++++++++++++",
"++++++++++++++++++++++++++++",
"++++++++++++++++++++++++++++"};
