/* XPM */
static char * maximize_inactive_xpm[] = {
"28 32 5 1",
" 	c None",
".	c #39454C",
"+	c #2A373E",
"@	c #6F787E",
"#	c #767F84",
"............................",
"++++++++++++++++++++++++++++",
"++++++++++++++++++++++++++++",
"++++++++++++++++++++++++++++",
"++++++++++++++++++++++++++++",
"++++++++++++++++++++++++++++",
"++++++++++++++++++++++++++++",
"++++++++++++++++++++++++++++",
"++++++++++++++++++++++++++++",
"++++++++++++++++++++++++++++",
"++++++++++++++++++++++++++++",
"++++++++++++++++++++++++++++",
"+++++++++++++@@+++++++++++++",
"+++++++++++++@@+++++++++++++",
"+++++++++++++@@+++++++++++++",
"++++++++++@@@##@@@++++++++++",
"++++++++++@@@##@@@++++++++++",
"+++++++++++++@@+++++++++++++",
"+++++++++++++@@+++++++++++++",
"+++++++++++++@@+++++++++++++",
"++++++++++++++++++++++++++++",
"++++++++++++++++++++++++++++",
"++++++++++++++++++++++++++++",
"++++++++++++++++++++++++++++",
"++++++++++++++++++++++++++++",
"++++++++++++++++++++++++++++",
"++++++++++++++++++++++++++++",
"++++++++++++++++++++++++++++",
"++++++++++++++++++++++++++++",
"++++++++++++++++++++++++++++",
"++++++++++++++++++++++++++++",
"++++++++++++++++++++++++++++"};
