/* XPM */
static char * menu_inactive_xpm[] = {
"28 32 4 1",
" 	c None",
".	c #39454C",
"+	c #2A373E",
"@	c #778085",
"............................",
"++++++++++++++++++++++++++++",
"++++++++++++++++++++++++++++",
"++++++++++++++++++++++++++++",
"++++++++++++++++++++++++++++",
"++++++++++++++++++++++++++++",
"++++++++++++++++++++++++++++",
"++++++++++++++++++++++++++++",
"++++++++++++++++++++++++++++",
"++++++++++++++++++++++++++++",
"++++++++++++++++++++++++++++",
"++++++++++++++++++++++++++++",
"++++++++++@@@@@@@@++++++++++",
"++++++++++@@@@@@@@++++++++++",
"++++++++++++++++++++++++++++",
"++++++++++@@@@@@@@++++++++++",
"++++++++++@@@@@@@@++++++++++",
"++++++++++++++++++++++++++++",
"++++++++++@@@@@@@@++++++++++",
"++++++++++@@@@@@@@++++++++++",
"++++++++++++++++++++++++++++",
"++++++++++++++++++++++++++++",
"++++++++++++++++++++++++++++",
"++++++++++++++++++++++++++++",
"++++++++++++++++++++++++++++",
"++++++++++++++++++++++++++++",
"++++++++++++++++++++++++++++",
"++++++++++++++++++++++++++++",
"++++++++++++++++++++++++++++",
"++++++++++++++++++++++++++++",
"++++++++++++++++++++++++++++",
"++++++++++++++++++++++++++++"};
