/* XPM */
static char * shade_prelight_xpm[] = {
"28 32 37 1",
" 	c None",
".	c #39454C",
"+	c #2A373E",
"@	c #2D3940",
"#	c #323F45",
"$	c #38444A",
"%	c #3A464D",
"&	c #3D494F",
"*	c #354248",
"=	c #3E4950",
"-	c #37434A",
";	c #313D44",
">	c #303C43",
",	c #2C383F",
"'	c #364349",
")	c #3F4A51",
"!	c #9BA1A6",
"~	c #A1A7AC",
"{	c #404A51",
"]	c #38444B",
"^	c #3B474E",
"/	c #434D54",
"(	c #B0B5B9",
"_	c #ECEFF1",
":	c #B4B9BD",
"<	c #444E56",
"[	c #49535A",
"}	c #C1C6C9",
"|	c #C5CACD",
"1	c #4B565C",
"2	c #505A61",
"3	c #CCD0D3",
"4	c #CFD4D6",
"5	c #535C63",
"6	c #364248",
"7	c #2C3940",
"8	c #364249",
"............................",
"++++++++++++++++++++++++++++",
"++++++++++++++++++++++++++++",
"++++++++++++++++++++++++++++",
"+++++++++@#$%&&%$#@+++++++++",
"+++++++@*==========-@+++++++",
"++++++;&============&>++++++",
"+++++#================#+++++",
"++++;==================>++++",
"+++@&==================&,+++",
"+++'===================='+++",
"++@======================@++",
"++#======================#++",
"++$=========)!~{=========]++",
"++^========/(__:<========%++",
"++&=======[}____|1=======&++",
"++&======23______45======&++",
"++%======================%++",
"++$======================]++",
"++#======================#++",
"++@======================@++",
"+++'====================6+++",
"+++@&==================&,+++",
"++++>==================>++++",
"+++++#================#+++++",
"++++++>&============&>++++++",
"+++++++76==========8,+++++++",
"+++++++++@#$%&&%]#@+++++++++",
"++++++++++++++++++++++++++++",
"++++++++++++++++++++++++++++",
"++++++++++++++++++++++++++++",
"++++++++++++++++++++++++++++"};
