/* XPM */
static char * shade_active_xpm[] = {
"28 32 19 1",
" 	c None",
".	c #39454C",
"+	c #2A373E",
"@	c #2B383F",
"#	c #778086",
"$	c #7D858A",
"%	c #2D3A41",
"&	c #899196",
"*	c #BCC1C5",
"=	c #8D9499",
"-	c #2F3B42",
";	c #333F46",
">	c #979FA3",
",	c #9BA2A7",
"'	c #354148",
")	c #39454B",
"!	c #A0A7AB",
"~	c #A4AAAE",
"{	c #3B474E",
"............................",
"++++++++++++++++++++++++++++",
"++++++++++++++++++++++++++++",
"++++++++++++++++++++++++++++",
"++++++++++++++++++++++++++++",
"++++++++++++++++++++++++++++",
"++++++++++++++++++++++++++++",
"++++++++++++++++++++++++++++",
"++++++++++++++++++++++++++++",
"++++++++++++++++++++++++++++",
"++++++++++++++++++++++++++++",
"++++++++++++++++++++++++++++",
"++++++++++++++++++++++++++++",
"++++++++++++@#$@++++++++++++",
"+++++++++++%&**=-+++++++++++",
"++++++++++;>****,'++++++++++",
"+++++++++)!******~{+++++++++",
"++++++++++++++++++++++++++++",
"++++++++++++++++++++++++++++",
"++++++++++++++++++++++++++++",
"++++++++++++++++++++++++++++",
"++++++++++++++++++++++++++++",
"++++++++++++++++++++++++++++",
"++++++++++++++++++++++++++++",
"++++++++++++++++++++++++++++",
"++++++++++++++++++++++++++++",
"++++++++++++++++++++++++++++",
"++++++++++++++++++++++++++++",
"++++++++++++++++++++++++++++",
"++++++++++++++++++++++++++++",
"++++++++++++++++++++++++++++",
"++++++++++++++++++++++++++++"};
