/* XPM */
static char * shade_inactive_xpm[] = {
"28 32 18 1",
" 	c None",
".	c #39454C",
"+	c #2A373E",
"@	c #535E64",
"#	c #556067",
"$	c #2B383F",
"%	c #2C3940",
"&	c #5C676C",
"*	c #778085",
"=	c #5F686E",
"-	c #2F3C43",
";	c #646E73",
">	c #667076",
",	c #303C43",
"'	c #323F46",
")	c #687278",
"!	c #6B7479",
"~	c #333F46",
"............................",
"++++++++++++++++++++++++++++",
"++++++++++++++++++++++++++++",
"++++++++++++++++++++++++++++",
"++++++++++++++++++++++++++++",
"++++++++++++++++++++++++++++",
"++++++++++++++++++++++++++++",
"++++++++++++++++++++++++++++",
"++++++++++++++++++++++++++++",
"++++++++++++++++++++++++++++",
"++++++++++++++++++++++++++++",
"++++++++++++++++++++++++++++",
"++++++++++++++++++++++++++++",
"+++++++++++++@#$++++++++++++",
"+++++++++++%&**=%+++++++++++",
"++++++++++-;****>,++++++++++",
"+++++++++')******!~+++++++++",
"++++++++++++++++++++++++++++",
"++++++++++++++++++++++++++++",
"++++++++++++++++++++++++++++",
"++++++++++++++++++++++++++++",
"++++++++++++++++++++++++++++",
"++++++++++++++++++++++++++++",
"++++++++++++++++++++++++++++",
"++++++++++++++++++++++++++++",
"++++++++++++++++++++++++++++",
"++++++++++++++++++++++++++++",
"++++++++++++++++++++++++++++",
"++++++++++++++++++++++++++++",
"++++++++++++++++++++++++++++",
"++++++++++++++++++++++++++++",
"++++++++++++++++++++++++++++"};
