/* XPM */
static char * shade_pressed_xpm[] = {
"28 32 34 1",
" 	c None",
".	c #39454C",
"+	c #2A373E",
"@	c #2F3C43",
"#	c #3A464E",
"$	c #465158",
"%	c #4B565D",
"&	c #4F5960",
"*	c #3A464D",
"=	c #2E3B42",
"-	c #414C53",
";	c #505A61",
">	c #515B62",
",	c #434F56",
"'	c #364349",
")	c #4F5A60",
"!	c #354249",
"~	c #424D54",
"{	c #424D53",
"]	c #3B464D",
"^	c #465157",
"/	c #455057",
"(	c #4B565C",
"_	c #9EA5AA",
":	c #A4A9AF",
"<	c #ECEFF1",
"[	c #4E595F",
"}	c #3A454D",
"|	c #414D54",
"1	c #354148",
"2	c #364248",
"3	c #2D3A41",
"4	c #404C52",
"5	c #434E54",
"............................",
"++++++++++++++++++++++++++++",
"++++++++++++++++++++++++++++",
"++++++++++++++++++++++++++++",
"+++++++++@#$%&&%$*=+++++++++",
"+++++++=-;>>>>>>>>>,@+++++++",
"++++++'&>>>>>>>>>>>>)!++++++",
"+++++#>>>>>>>>>>>>>>>>#+++++",
"++++'>>>>>>>>>>>>>>>>>>!++++",
"+++=&>>>>>>>>>>>>>>>>>>)=+++",
"+++~>>>>>>>>>>>>>>>>>>>>{+++",
"++@;>>>>>>>>>>>>>>>>>>>>;=++",
"++#>>>>>>>>>>>>>>>>>>>>>>]++",
"++^>>>>>>>>>>>>>>>>>>>>>>/++",
"++(>>>>>>>>>>_:>>>>>>>>>>%++",
"++&>>>>>>>>>_<<:>>>>>>>>>&++",
"++&>>>>>>>>_<<<<:>>>>>>>>[++",
"++%>>>>>>>_<<<<<<:>>>>>>>(++",
"++^>>>>>>>>>>>>>>>>>>>>>>/++",
"++*>>>>>>>>>>>>>>>>>>>>>>}++",
"++=;>>>>>>>>>>>>>>>>>>>>;=++",
"+++{>>>>>>>>>>>>>>>>>>>>|+++",
"+++=)>>>>>>>>>>>>>>>>>>[=+++",
"++++1;>>>>>>>>>>>>>>>>>2++++",
"+++++#>>>>>>>>>>>>>>>>#+++++",
"++++++!)>>>>>>>>>>>>[2++++++",
"+++++++34;>>>>>>>>>5=+++++++",
"+++++++++=]^(&&(/]=+++++++++",
"++++++++++++++++++++++++++++",
"++++++++++++++++++++++++++++",
"++++++++++++++++++++++++++++",
"++++++++++++++++++++++++++++"};
