/* XPM */
static char * stick_pressed_xpm[] = {
"28 32 12 1",
" 	c None",
".	c #39454C",
"+	c #2A373E",
"@	c #2F3C43",
"#	c #92999E",
"$	c #D9DDDF",
"%	c #D8DDDE",
"&	c #ECEFF1",
"*	c #DADEE0",
"=	c #D7DCDE",
"-	c #91999D",
";	c #00BCD4",
"............................",
"++++++++++++++++++++++++++++",
"++++++++++++++++++++++++++++",
"++++++++++++++++++++++++++++",
"++++++++++++++++++++++++++++",
"++++++++++++++++++++++++++++",
"++++++++++++++++++++++++++++",
"++++++++++++++++++++++++++++",
"++++++++++++++++++++++++++++",
"++++++++++++++++++++++++++++",
"++++++++++++++++++++++++++++",
"++++++++++++++++++++++++++++",
"++++++++++++++++++++++++++++",
"+++++++++++@#$%#@+++++++++++",
"+++++++++++#&&&&#+++++++++++",
"+++++++++++$&&&&*+++++++++++",
"+++++++++++%&&&&=+++++++++++",
"+++++++++++#&&&&-+++++++++++",
"+++++++++++@#%%#@+++++++++++",
"++++++++++++++++++++++++++++",
"++++++++++++++++++++++++++++",
"++++++++++++++++++++++++++++",
"++++++++++++++++++++++++++++",
"++++++++++++++++++++++++++++",
"++++++++++++++++++++++++++++",
"++++++++++++++++++++++++++++",
"++++++++++++++++++++++++++++",
"++;;;;;;;;;;;;;;;;;;;;;;;;++",
"++;;;;;;;;;;;;;;;;;;;;;;;;++",
"++++++++++++++++++++++++++++",
"++++++++++++++++++++++++++++",
"++++++++++++++++++++++++++++"};
