/* XPM */
static char * top_left_inactive_xpm[] = {
"4 32 3 1",
" 	c None",
".	c #3F4B51",
"+	c #2A373E",
"  ..",
" +++",
"++++",
"++++",
"++++",
"++++",
"++++",
"++++",
"++++",
"++++",
"++++",
"++++",
"++++",
"++++",
"++++",
"++++",
"++++",
"++++",
"++++",
"++++",
"++++",
"++++",
"++++",
"++++",
"++++",
"++++",
"++++",
"++++",
"++++",
"++++",
"++++",
"++++"};
