<?xml version="1.0" encoding="UTF-8" standalone="no"?>
<!-- By Sam Herbert (@sherb), for everyone. More @ http://goo.gl/7AJzbL -->

<svg
   xmlns:dc="http://purl.org/dc/elements/1.1/"
   xmlns:cc="http://creativecommons.org/ns#"
   xmlns:rdf="http://www.w3.org/1999/02/22-rdf-syntax-ns#"
   xmlns:svg="http://www.w3.org/2000/svg"
   xmlns="http://www.w3.org/2000/svg"
   xmlns:sodipodi="http://sodipodi.sourceforge.net/DTD/sodipodi-0.dtd"
   xmlns:inkscape="http://www.inkscape.org/namespaces/inkscape"
   width="64"
   height="64"
   viewBox="0 0 64 64"
   id="svg2"
   version="1.1"
   inkscape:version="0.92+devel unknown"
   sodipodi:docname="show-apps.svg"
   style="stroke:#ffffff">
  <metadata
     id="metadata16">
    <rdf:RDF>
      <cc:Work
         rdf:about="">
        <dc:format>image/svg+xml</dc:format>
        <dc:type
           rdf:resource="http://purl.org/dc/dcmitype/StillImage" />
        <dc:title />
        <cc:license
           rdf:resource="http://creativecommons.org/licenses/by-sa/4.0/" />
      </cc:Work>
      <cc:License
         rdf:about="http://creativecommons.org/licenses/by-sa/4.0/">
        <cc:permits
           rdf:resource="http://creativecommons.org/ns#Reproduction" />
        <cc:permits
           rdf:resource="http://creativecommons.org/ns#Distribution" />
        <cc:requires
           rdf:resource="http://creativecommons.org/ns#Notice" />
        <cc:requires
           rdf:resource="http://creativecommons.org/ns#Attribution" />
        <cc:permits
           rdf:resource="http://creativecommons.org/ns#DerivativeWorks" />
        <cc:requires
           rdf:resource="http://creativecommons.org/ns#ShareAlike" />
      </cc:License>
    </rdf:RDF>
  </metadata>
  <defs
     id="defs14" />
  <sodipodi:namedview
     pagecolor="#808080"
     bordercolor="#666666"
     borderopacity="1"
     objecttolerance="10"
     gridtolerance="10"
     guidetolerance="10"
     inkscape:pageopacity="0"
     inkscape:pageshadow="2"
     inkscape:window-width="1280"
     inkscape:window-height="734"
     id="namedview12"
     showgrid="true"
     inkscape:zoom="8.7830105"
     inkscape:cx="-7.5500458"
     inkscape:cy="31.55768"
     inkscape:window-x="0"
     inkscape:window-y="0"
     inkscape:window-maximized="1"
     inkscape:current-layer="svg2"
     showguides="false"
     inkscape:document-rotation="0">
    <sodipodi:guide
       position="590.23042,546.50965"
       orientation="0,1"
       id="guide4136"
       inkscape:locked="false" />
    <inkscape:grid
       type="xygrid"
       id="grid4162" />
  </sodipodi:namedview>
  <path
     style="fill:#cfd8dc;fill-opacity:1;fill-rule:evenodd;stroke-width:0"
     d="M 21 18 A 3 3 0 0 0 18 21 A 3 3 0 0 0 21 24 A 3 3 0 0 0 24 21 A 3 3 0 0 0 21 18 z M 32 18 A 3 3 0 0 0 29 21 A 3 3 0 0 0 32 24 A 3 3 0 0 0 35 21 A 3 3 0 0 0 32 18 z M 43 18 A 3 3 0 0 0 40 21 A 3 3 0 0 0 43 24 A 3 3 0 0 0 46 21 A 3 3 0 0 0 43 18 z M 21 29 A 3 3 0 0 0 18 32 A 3 3 0 0 0 21 35 A 3 3 0 0 0 24 32 A 3 3 0 0 0 21 29 z M 32 29 A 3 3 0 0 0 29 32 A 3 3 0 0 0 32 35 A 3 3 0 0 0 35 32 A 3 3 0 0 0 32 29 z M 43 29 A 3 3 0 0 0 40 32 A 3 3 0 0 0 43 35 A 3 3 0 0 0 46 32 A 3 3 0 0 0 43 29 z M 21 40 A 3 3 0 0 0 18 43 A 3 3 0 0 0 21 46 A 3 3 0 0 0 24 43 A 3 3 0 0 0 21 40 z M 32 40 A 3 3 0 0 0 29 43 A 3 3 0 0 0 32 46 A 3 3 0 0 0 35 43 A 3 3 0 0 0 32 40 z M 43 40 A 3 3 0 0 0 40 43 A 3 3 0 0 0 43 46 A 3 3 0 0 0 46 43 A 3 3 0 0 0 43 40 z "
     id="path4267" />
</svg>
