<?xml version="1.0" encoding="UTF-8" standalone="no"?>
<svg xmlns:rdf="http://www.w3.org/1999/02/22-rdf-syntax-ns#" xmlns="http://www.w3.org/2000/svg" height="64" width="64" version="1.1" xmlns:cc="http://creativecommons.org/ns#" xmlns:dc="http://purl.org/dc/elements/1.1/" viewBox="0 0 64.000783 64.00078">
 <title>App Drawer Marshmallow</title>
 <metadata>
  <rdf:RDF>
   <cc:Work rdf:about="">
    <dc:format>image/svg+xml</dc:format>
    <dc:type rdf:resource="http://purl.org/dc/dcmitype/StillImage"/>
    <dc:title>App Drawer Marshmallow</dc:title>
    <dc:creator>
     <cc:Agent>
      <dc:title>HEXcube</dc:title>
     </cc:Agent>
    </dc:creator>
    <dc:source>https://android.googlesource.com/platform/packages/apps/Launcher3/+/marshmallow-release/res/drawable-xxhdpi/ic_allapps.png</dc:source>
    <dc:description>Android Marshmallow&apos;s App Drawer button recreated as vector SVG</dc:description>
    <cc:license rdf:resource="https://creativecommons.org/licenses/by/4.0/"/>
   </cc:Work>
  </rdf:RDF>
 </metadata>
 <defs>
  <filter id="filter4178" style="color-interpolation-filters:sRGB">
   <feFlood result="flood" flood-opacity=".49804" flood-color="rgb(51,51,51)"/>
   <feComposite operator="in" result="composite1" in2="SourceGraphic" in="flood"/>
   <feGaussianBlur stdDeviation="1" result="blur" in="composite1"/>
   <feOffset result="offset" dx="1" dy="1"/>
   <feComposite operator="over" result="composite2" in2="offset" in="SourceGraphic"/>
  </filter>
 </defs>
 <path d="m32 7a25 25 0 0 0 -25 25 25 25 0 0 0 25 25 25 25 0 0 0 25 -25 25 25 0 0 0 -25 -25zm-11 17a2.5 2.5 0 0 1 2.5 2.5 2.5 2.5 0 0 1 -2.5 2.5 2.5 2.5 0 0 1 -2.5 -2.5 2.5 2.5 0 0 1 2.5 -2.5zm11 0a2.5 2.5 0 0 1 2.5 2.5 2.5 2.5 0 0 1 -2.5 2.5 2.5 2.5 0 0 1 -2.5 -2.5 2.5 2.5 0 0 1 2.5 -2.5zm11 0a2.5 2.5 0 0 1 2.5 2.5 2.5 2.5 0 0 1 -2.5 2.5 2.5 2.5 0 0 1 -2.5 -2.5 2.5 2.5 0 0 1 2.5 -2.5zm-22 11a2.5 2.5 0 0 1 2.5 2.5 2.5 2.5 0 0 1 -2.5 2.5 2.5 2.5 0 0 1 -2.5 -2.5 2.5 2.5 0 0 1 2.5 -2.5zm11 0a2.5 2.5 0 0 1 2.5 2.5 2.5 2.5 0 0 1 -2.5 2.5 2.5 2.5 0 0 1 -2.5 -2.5 2.5 2.5 0 0 1 2.5 -2.5zm11 0a2.5 2.5 0 0 1 2.5 2.5 2.5 2.5 0 0 1 -2.5 2.5 2.5 2.5 0 0 1 -2.5 -2.5 2.5 2.5 0 0 1 2.5 -2.5z" filter="url(#filter4178)" fill="#ececec"/>
</svg>
