/* XPM */
static char * close_prelight_xpm[] = {
"28 32 94 2",
"  	c None",
". 	c #39454C",
"+ 	c #2A373E",
"@ 	c #2A363D",
"# 	c #29363D",
"$ 	c #29353C",
"% 	c #42393F",
"& 	c #844145",
"* 	c #C3494B",
"= 	c #DE4D4E",
"- 	c #F65051",
"; 	c #834245",
"> 	c #41383E",
", 	c #40383F",
"' 	c #A94649",
") 	c #FC5252",
"! 	c #FF5252",
"~ 	c #FD5151",
"{ 	c #B7484B",
"] 	c #44383E",
"^ 	c #6B3E42",
"/ 	c #F55051",
"( 	c #F45151",
"_ 	c #6A3E42",
": 	c #864145",
"< 	c #854145",
"[ 	c #6A3D42",
"} 	c #40383E",
"| 	c #3E383D",
"1 	c #AD4749",
"2 	c #AA4649",
"3 	c #40373E",
"4 	c #28353C",
"5 	c #844044",
"6 	c #FFFEFE",
"7 	c #FFD7D7",
"8 	c #FF6060",
"9 	c #FF5F5F",
"0 	c #FFD4D4",
"a 	c #FFFFFF",
"b 	c #824044",
"c 	c #28343B",
"d 	c #C2494B",
"e 	c #FFE1E1",
"f 	c #FFE0E0",
"g 	c #FFDEDE",
"h 	c #FFE4E4",
"i 	c #C0494B",
"j 	c #28343A",
"k 	c #E04D4E",
"l 	c #FF6464",
"m 	c #FFE7E7",
"n 	c #FFE9E9",
"o 	c #FF6868",
"p 	c #28353B",
"q 	c #27333A",
"r 	c #FF6262",
"s 	c #FFE3E3",
"t 	c #FFEBEB",
"u 	c #FF6969",
"v 	c #FFE5E5",
"w 	c #F35050",
"x 	c #DF4D4E",
"y 	c #FFE2E2",
"z 	c #DD4D4E",
"A 	c #FFDDDD",
"B 	c #FF6363",
"C 	c #C0494A",
"D 	c #7F3F44",
"E 	c #40363C",
"F 	c #3F363C",
"G 	c #AB4548",
"H 	c #A74548",
"I 	c #3E373C",
"J 	c #F45051",
"K 	c #3C363B",
"L 	c #643B3F",
"M 	c #683C40",
"N 	c #27343A",
"O 	c #843F43",
"P 	c #834043",
"Q 	c #673B3F",
"R 	c #38353A",
"S 	c #A14447",
"T 	c #AF4648",
"U 	c #3B353B",
"V 	c #273339",
"W 	c #3E363B",
"X 	c #813E42",
"Y 	c #C1494B",
"Z 	c #C0484A",
"` 	c #803F42",
" .	c #273239",
"..	c #263238",
". . . . . . . . . . . . . . . . . . . . . . . . . . . . ",
"+ + + + + + + + + + + + + + + + + + + + + + + + + + + + ",
"+ + + + + + + + + + + + + + + + + + + + + + + + + + + + ",
"+ + + + + + + + + @ # # # $ $ # # # @ + + + + + + + + + ",
"+ + + + + + + # # % & * = - - = * ; > # # + + + + + + + ",
"+ + + + + @ # , ' ) ! ! ! ! ! ! ! ! ~ { ] # @ + + + + + ",
"+ + + + @ $ ^ / ! ! ! ! ! ! ! ! ! ! ! ! ( _ $ @ + + + + ",
"+ + + @ $ : ~ ! ! ! ! ! ! ! ! ! ! ! ! ! ! ~ < $ @ + + + ",
"+ + @ $ ^ ~ ! ! ! ! ! ! ! ! ! ! ! ! ! ! ! ! ~ [ $ @ + + ",
"+ @ # } / ! ! ! ! ! ! ! ! ! ! ! ! ! ! ! ! ! ! ( | # + + ",
"+ # $ 1 ! ! ! ! ! ! ! ! ! ! ! ! ! ! ! ! ! ! ! ! 2 $ # + ",
"@ $ > ) ! ! ! ! ! ! ! ! ! ! ! ! ! ! ! ! ! ! ! ! ) 3 $ + ",
"# 4 5 ! ! ! ! ! ! ! 6 7 8 ! ! 9 0 a ! ! ! ! ! ! ! b 4 + ",
"$ c d ! ! ! ! ! ! ! e a f 8 8 g a h ! ! ! ! ! ! ! i c + ",
"$ j k ! ! ! ! ! ! ! l m a f f a n o ! ! ! ! ! ! ! = j + ",
"p q / ! ! ! ! ! ! ! ! r s a a t u ! ! ! ! ! ! ! ! / q + ",
"p q / ! ! ! ! ! ! ! ! 8 f a a v l ! ! ! ! ! ! ! ! w q + ",
"p q x ! ! ! ! ! ! ! r y a h h a h r ! ! ! ! ! ! ! z q + ",
"p q d ! ! ! ! ! ! ! A a h B r h a g ! ! ! ! ! ! ! C q + ",
"$ j b ! ! ! ! ! ! ! 6 g B ! ! r g a ! ! ! ! ! ! ! D j + ",
"$ c E ) ! ! ! ! ! ! ! ! ! ! ! ! ! ! ! ! ! ! ! ! ) F c + ",
"# 4 q G ! ! ! ! ! ! ! ! ! ! ! ! ! ! ! ! ! ! ! ! H q 4 + ",
"@ $ c I J ! ! ! ! ! ! ! ! ! ! ! ! ! ! ! ! ! ! w K c $ + ",
"+ # $ j L ) ! ! ! ! ! ! ! ! ! ! ! ! ! ! ! ! ~ M N $ # + ",
"+ + # p q O ~ ! ! ! ! ! ! ! ! ! ! ! ! ! ! ~ P q p # + + ",
"+ + @ $ c q M J ! ! ! ! ! ! ! ! ! ! ! ! w Q q c $ @ + + ",
"+ + + @ $ c q R S ) ! ! ! ! ! ! ! ! ~ T U q c $ @ + + + ",
"+ + + + @ # p j V W X Y z / / z Z ` W V N p $ @ + + + + ",
"+ + + + + @ # $ c N V  ......... .V N c $ # @ + + + + + ",
"+ + + + + + + # # $ p c j j j j c p $ # # + + + + + + + ",
"+ + + + + + + + + + + + + + + + + + + + + + + + + + + + ",
"+ + + + + + + + + + + + + + + + + + + + + + + + + + + + "};
