/* XPM */
static char * maximize_active_xpm[] = {
"28 32 4 1",
" 	c None",
".	c #39454C",
"+	c #2A373E",
"@	c #BCC1C5",
"............................",
"++++++++++++++++++++++++++++",
"++++++++++++++++++++++++++++",
"++++++++++++++++++++++++++++",
"++++++++++++++++++++++++++++",
"++++++++++++++++++++++++++++",
"++++++++++++++++++++++++++++",
"++++++++++++++++++++++++++++",
"++++++++++++++++++++++++++++",
"++++++++++++++++++++++++++++",
"++++++++++++++++++++++++++++",
"++++++++++++++++++++++++++++",
"++++++++++@@@@@@@@++++++++++",
"++++++++++@@@@@@@@++++++++++",
"++++++++++++++++++++++++++++",
"++++++++++@@@@@@@@++++++++++",
"++++++++++@@@@@@@@++++++++++",
"++++++++++@@++++@@++++++++++",
"++++++++++@@@@@@@@++++++++++",
"++++++++++@@@@@@@@++++++++++",
"++++++++++++++++++++++++++++",
"++++++++++++++++++++++++++++",
"++++++++++++++++++++++++++++",
"++++++++++++++++++++++++++++",
"++++++++++++++++++++++++++++",
"++++++++++++++++++++++++++++",
"++++++++++++++++++++++++++++",
"++++++++++++++++++++++++++++",
"++++++++++++++++++++++++++++",
"++++++++++++++++++++++++++++",
"++++++++++++++++++++++++++++",
"++++++++++++++++++++++++++++"};
