/* XPM */
static char * menu_pressed_xpm[] = {
"28 32 5 1",
" 	c None",
".	c #39454C",
"+	c #2A373E",
"@	c #ECEFF1",
"#	c #00BCD4",
"............................",
"++++++++++++++++++++++++++++",
"++++++++++++++++++++++++++++",
"++++++++++++++++++++++++++++",
"++++++++++++++++++++++++++++",
"++++++++++++++++++++++++++++",
"++++++++++++++++++++++++++++",
"++++++++++++++++++++++++++++",
"++++++++++++++++++++++++++++",
"++++++++++++++++++++++++++++",
"++++++++++++++++++++++++++++",
"++++++++++++++++++++++++++++",
"++++++++++@@@@@@@@++++++++++",
"++++++++++@@@@@@@@++++++++++",
"++++++++++++++++++++++++++++",
"++++++++++@@@@@@@@++++++++++",
"++++++++++@@@@@@@@++++++++++",
"++++++++++++++++++++++++++++",
"++++++++++@@@@@@@@++++++++++",
"++++++++++@@@@@@@@++++++++++",
"++++++++++++++++++++++++++++",
"++++++++++++++++++++++++++++",
"++++++++++++++++++++++++++++",
"++++++++++++++++++++++++++++",
"++++++++++++++++++++++++++++",
"++++++++++++++++++++++++++++",
"++++++++++++++++++++++++++++",
"++########################++",
"++########################++",
"++++++++++++++++++++++++++++",
"++++++++++++++++++++++++++++",
"++++++++++++++++++++++++++++"};
