/* XPM */
static char * stick_pressed_xpm[] = {
"28 32 40 1",
" 	c None",
".	c #39454C",
"+	c #2A373E",
"@	c #2F3C43",
"#	c #3A464E",
"$	c #465158",
"%	c #4B565D",
"&	c #4F5960",
"*	c #3A464D",
"=	c #2E3B42",
"-	c #414C53",
";	c #505A61",
">	c #515B62",
",	c #434F56",
"'	c #364349",
")	c #4F5A60",
"!	c #354249",
"~	c #424D54",
"{	c #424D53",
"]	c #3B464D",
"^	c #465157",
"/	c #555F66",
"(	c #A4AAAE",
"_	c #DDE1E3",
":	c #DCE0E2",
"<	c #A4A9AF",
"[	c #455057",
"}	c #4B565C",
"|	c #ECEFF1",
"1	c #DEE2E3",
"2	c #DCE0E1",
"3	c #4E595F",
"4	c #A3AAAE",
"5	c #3A454D",
"6	c #414D54",
"7	c #354148",
"8	c #364248",
"9	c #2D3A41",
"0	c #404C52",
"a	c #434E54",
"............................",
"++++++++++++++++++++++++++++",
"++++++++++++++++++++++++++++",
"++++++++++++++++++++++++++++",
"+++++++++@#$%&&%$*=+++++++++",
"+++++++=-;>>>>>>>>>,@+++++++",
"++++++'&>>>>>>>>>>>>)!++++++",
"+++++#>>>>>>>>>>>>>>>>#+++++",
"++++'>>>>>>>>>>>>>>>>>>!++++",
"+++=&>>>>>>>>>>>>>>>>>>)=+++",
"+++~>>>>>>>>>>>>>>>>>>>>{+++",
"++@;>>>>>>>>>>>>>>>>>>>>;=++",
"++#>>>>>>>>>>>>>>>>>>>>>>]++",
"++^>>>>>>>>/(_:</>>>>>>>>[++",
"++}>>>>>>>><||||<>>>>>>>>%++",
"++&>>>>>>>>_||||1>>>>>>>>&++",
"++&>>>>>>>>:||||2>>>>>>>>3++",
"++%>>>>>>>><||||4>>>>>>>>}++",
"++^>>>>>>>>/<::</>>>>>>>>[++",
"++*>>>>>>>>>>>>>>>>>>>>>>5++",
"++=;>>>>>>>>>>>>>>>>>>>>;=++",
"+++{>>>>>>>>>>>>>>>>>>>>6+++",
"+++=)>>>>>>>>>>>>>>>>>>3=+++",
"++++7;>>>>>>>>>>>>>>>>>8++++",
"+++++#>>>>>>>>>>>>>>>>#+++++",
"++++++!)>>>>>>>>>>>>38++++++",
"+++++++90;>>>>>>>>>a=+++++++",
"+++++++++=]^}&&}[]=+++++++++",
"++++++++++++++++++++++++++++",
"++++++++++++++++++++++++++++",
"++++++++++++++++++++++++++++",
"++++++++++++++++++++++++++++"};
