/* XPM */
static char * stick_inactive_xpm[] = {
"28 32 10 1",
" 	c None",
".	c #39454C",
"+	c #2A373E",
"@	c #2C3940",
"#	c #545E65",
"$	c #70797F",
"%	c #6F787E",
"&	c #535E64",
"*	c #778085",
"=	c #535D64",
"............................",
"++++++++++++++++++++++++++++",
"++++++++++++++++++++++++++++",
"++++++++++++++++++++++++++++",
"++++++++++++++++++++++++++++",
"++++++++++++++++++++++++++++",
"++++++++++++++++++++++++++++",
"++++++++++++++++++++++++++++",
"++++++++++++++++++++++++++++",
"++++++++++++++++++++++++++++",
"++++++++++++++++++++++++++++",
"++++++++++++++++++++++++++++",
"++++++++++++++++++++++++++++",
"+++++++++++@#$%&@+++++++++++",
"+++++++++++&****&+++++++++++",
"+++++++++++$****$+++++++++++",
"+++++++++++%****%+++++++++++",
"+++++++++++&****=+++++++++++",
"+++++++++++@&%%&@+++++++++++",
"++++++++++++++++++++++++++++",
"++++++++++++++++++++++++++++",
"++++++++++++++++++++++++++++",
"++++++++++++++++++++++++++++",
"++++++++++++++++++++++++++++",
"++++++++++++++++++++++++++++",
"++++++++++++++++++++++++++++",
"++++++++++++++++++++++++++++",
"++++++++++++++++++++++++++++",
"++++++++++++++++++++++++++++",
"++++++++++++++++++++++++++++",
"++++++++++++++++++++++++++++",
"++++++++++++++++++++++++++++"};
